<?xml version="1.0" encoding="UTF-8"?>
<svg version="1.1" xmlns="http://www.w3.org/2000/svg" width="500" height="500">
<path d="M0 0 C1.4461206 3.82385456 0.51370349 6.17001337 -0.859375 9.9296875 C-1.30547119 11.17065186 -1.75156738 12.41161621 -2.21118164 13.69018555 C-2.45965851 14.36576508 -2.70813538 15.0413446 -2.96414185 15.73739624 C-3.7742757 17.94103205 -4.57120049 20.14906961 -5.36499023 22.35864258 C-6.25168751 24.82601343 -7.13937077 27.29299708 -8.03074646 29.75868225 C-12.11019439 41.04390643 -16.08198499 52.36709495 -20.0625 63.6875 C-20.46430481 64.82889435 -20.86610962 65.9702887 -21.28009033 67.14627075 C-29.46591039 90.40021372 -37.51962527 113.69896153 -45.55227661 137.00616455 C-49.53955495 148.57221162 -53.54941695 160.13038598 -57.5625 171.6875 C-63.04432845 187.47608128 -68.5161287 203.26808784 -73.97937012 219.06311035 C-86.55251899 255.41069716 -99.23038749 291.72098586 -112 328 C-112.99 328 -113.98 328 -115 328 C-115.40613525 327.2879541 -115.81227051 326.5759082 -116.23071289 325.84228516 C-128.96736675 303.51788527 -141.76252589 281.22891903 -154.73095703 259.03808594 C-159.65075198 250.61402569 -164.52531212 242.1643035 -169.39453125 233.7109375 C-173.57349158 226.46048459 -177.77747989 219.22516137 -182 212 C-186.83676456 203.72222879 -191.64858598 195.43054939 -196.4375 187.125 C-197.36381226 185.51878784 -197.36381226 185.51878784 -198.30883789 183.88012695 C-201.20854281 178.84982664 -204.10543931 173.81793795 -206.99642944 168.78262329 C-207.99258233 167.04807227 -208.98969582 165.31407304 -209.98681641 163.58007812 C-211.26947855 161.34930552 -212.55045272 159.11756136 -213.82958984 156.88476562 C-216.40385677 152.40934211 -218.98310562 147.9559771 -221.7890625 143.62109375 C-222.18230713 143.01177002 -222.57555176 142.40244629 -222.98071289 141.7746582 C-223.96155099 140.27894097 -224.96581937 138.79865377 -225.97265625 137.3203125 C-227 135 -227 135 -226.33154297 133.02197266 C-224.71959343 130.57419743 -223.29500954 129.71709497 -220.72265625 128.328125 C-219.8308667 127.83715332 -218.93907715 127.34618164 -218.02026367 126.84033203 C-216.55617065 126.05311768 -216.55617065 126.05311768 -215.0625 125.25 C-212.95425501 124.08860949 -210.84754471 122.92442977 -208.7421875 121.7578125 C-207.08268066 120.83983887 -207.08268066 120.83983887 -205.38964844 119.90332031 C-199.76285825 116.74382331 -194.22730558 113.4339196 -188.6875 110.125 C-178.69217053 104.17036603 -168.64929229 98.30691338 -158.5637207 92.5065918 C-148.33204994 86.62173459 -138.13642276 80.67628322 -127.94580078 74.72070312 C-125.02605681 73.01522032 -122.1050684 71.31189123 -119.18359375 69.609375 C-110.76889582 64.70524971 -102.35565893 59.79879359 -93.95703125 54.8671875 C-91.51304725 53.43224667 -89.06905067 51.99732727 -86.625 50.5625 C-86.01595825 50.20493622 -85.4069165 49.84737244 -84.77941895 49.47897339 C-76.06282123 44.36324239 -67.32319433 39.28995128 -58.5625 34.25 C-49.75177397 29.1809788 -40.97707672 24.05632428 -32.23413086 18.87133789 C-21.52371269 12.5222721 -10.76140296 6.26213322 0 0 Z " fill="#909397" transform="translate(492,123)"/>
<path d="M0 0 C2.59090104 2.35148259 4.18835716 4.81679099 5.90625 7.85546875 C6.47537109 8.85392822 7.04449219 9.8523877 7.63085938 10.88110352 C8.24767578 11.97221436 8.86449219 13.0633252 9.5 14.1875 C10.85240905 16.55571777 12.20615939 18.92310065 13.5625 21.2890625 C13.91856323 21.91073807 14.27462646 22.53241364 14.64147949 23.17292786 C18.85405296 30.51298791 23.17289328 37.78956092 27.5 45.0625 C27.90329529 45.74078857 28.30659058 46.41907715 28.72210693 47.11791992 C34.59724058 56.99652031 40.51127762 66.85142875 46.4375 76.69946289 C51.5508119 85.21364841 56.57297551 93.77950799 61.58355713 102.3543396 C66.50184087 110.76923956 71.4695635 119.1514308 76.5 127.5 C82.77954124 137.92346515 88.95735484 148.40384775 95.10351562 158.90625 C95.44040405 159.48184662 95.77729248 160.05744324 96.12438965 160.65048218 C97.1078325 162.33389471 98.087157 164.01971099 99.06640625 165.70556641 C100.38815046 167.95753817 101.72360584 170.19125062 103.08984375 172.41552734 C103.74082031 173.48883301 104.39179688 174.56213867 105.0625 175.66796875 C105.65160156 176.62340576 106.24070313 177.57884277 106.84765625 178.56323242 C108 181 108 181 107 184 C105.36410522 185.35404968 105.36410522 185.35404968 103.21240234 186.7487793 C102.40490036 187.27814087 101.59739838 187.80750244 100.76542664 188.35290527 C99.88119522 188.92093872 98.99696381 189.48897217 98.0859375 190.07421875 C97.17338699 190.67004761 96.26083649 191.26587646 95.32063293 191.87976074 C93.36210146 193.1576828 91.40124325 194.43204456 89.43832397 195.70321655 C84.32667943 199.01430991 79.23231774 202.35178736 74.13671875 205.6875 C73.14269547 206.33736374 72.14867218 206.98722748 71.12452698 207.65678406 C64.39965237 212.06038502 57.74819147 216.54190869 51.1875 221.1875 C36.171931 231.79828538 20.78211055 241.86456351 5.46582031 252.03344727 C0.77188591 255.15038926 -3.91665548 258.27537264 -8.60406494 261.40211487 C-12.18763597 263.79233663 -15.77290406 266.17997564 -19.36001587 268.56488037 C-36.83344557 280.18244053 -54.25376581 291.87668172 -71.64334106 303.61938477 C-86.72480827 313.80290549 -101.83805201 323.93668723 -117 334 C-118.40072231 329.79783308 -116.82273459 326.88109053 -115.37890625 322.8828125 C-114.94306213 321.64223083 -114.94306213 321.64223083 -114.49841309 320.37658691 C-113.52847769 317.62289742 -112.54553603 314.87403727 -111.5625 312.125 C-110.87544947 310.18305263 -110.18918315 308.24082766 -109.50366211 306.29833984 C-107.70319351 301.20387024 -105.89165333 296.1134104 -104.07714844 291.02392578 C-102.37929655 286.25747213 -100.6901128 281.48795192 -99 276.71875 C-95.67130121 267.33221429 -92.32988298 257.95023995 -88.98535156 248.56933594 C-85.79862091 239.63102093 -82.61750958 230.69070801 -79.4375 221.75 C-79.11754059 220.85062714 -78.79758118 219.95125427 -78.46792603 219.02462769 C-74.16044468 206.91525365 -69.86613487 194.80125543 -65.58203125 182.68359375 C-65.34648718 182.01738195 -65.11094311 181.35117016 -64.86826134 180.66477013 C-63.65534565 177.23413988 -62.44248918 173.8034887 -61.22964478 170.37283325 C-60.98581181 169.68313068 -60.74197884 168.99342812 -60.49075699 168.28282547 C-59.99666171 166.88521405 -59.50257959 165.48759798 -59.00851059 164.08997726 C-51.55556725 143.00770476 -44.05975783 121.94132862 -36.52441406 100.88833618 C-29.42376023 81.04512839 -22.40759719 61.17292987 -15.44042969 41.2824707 C-11.83967078 31.00950572 -8.21414498 20.74604625 -4.515625 10.5078125 C-4.00633453 9.08986893 -4.00633453 9.08986893 -3.48675537 7.64328003 C-3.17433899 6.78276031 -2.86192261 5.9222406 -2.54003906 5.03564453 C-2.26581116 4.27752472 -1.99158325 3.51940491 -1.70904541 2.73831177 C-1 1 -1 1 0 0 Z " fill="#BFD62F" transform="translate(123,117)"/>
<path d="M0 0 C14.91447016 10.98154481 24.69454312 27.51124731 27.95703125 45.65234375 C30.5385808 69.6164249 24.69701567 88.51446747 9.8984375 107.35546875 C-0.09815305 118.65131037 -15.02729061 126.22466287 -29.65625 129.2421875 C-30.749375 129.4690625 -31.8425 129.6959375 -32.96875 129.9296875 C-55.86432368 131.86999035 -75.10470217 125.95426232 -92.65625 111.1796875 C-105.71025295 99.10016688 -114.33217522 81.9516554 -115.08984375 64.09375 C-115.11316459 62.01835978 -115.11407355 59.94260924 -115.09375 57.8671875 C-115.08617676 56.77446533 -115.07860352 55.68174316 -115.07080078 54.5559082 C-114.90015892 46.1726595 -113.92803022 39.03552734 -110.65625 31.2421875 C-110.00269531 29.68177734 -110.00269531 29.68177734 -109.3359375 28.08984375 C-106.05467314 20.98043763 -101.83599531 15.08600273 -96.65625 9.2421875 C-96.13675781 8.62859375 -95.61726563 8.015 -95.08203125 7.3828125 C-70.09759918 -20.05600963 -29.03629 -19.21519191 0 0 Z " fill="#FD0101" transform="translate(338.65625,54.7578125)"/>
<path d="M0 0 C-5.65561863 3.85167823 -11.31606505 7.69617736 -16.97998047 11.53564453 C-18.90754233 12.84355166 -20.83397894 14.15311872 -22.75927734 15.46435547 C-25.52149367 17.34516463 -28.28765744 19.22003245 -31.0546875 21.09375 C-32.3516304 21.97963806 -32.3516304 21.97963806 -33.67477417 22.88342285 C-34.47545319 23.42398315 -35.2761322 23.96454346 -36.10107422 24.52148438 C-36.8072287 25.00113647 -37.51338318 25.48078857 -38.24093628 25.97497559 C-40 27 -40 27 -42 27 C-42 26.01 -42 25.02 -42 24 C-40.35 23.67 -38.7 23.34 -37 23 C-36.67 22.01 -36.34 21.02 -36 20 C-35.34 19.67 -34.68 19.34 -34 19 C-33.67 18.34 -33.34 17.68 -33 17 C-32.01 17.33 -31.02 17.66 -30 18 C-30 16.68 -30 15.36 -30 14 C-26.46588679 11.87953208 -23.05606165 11.46800711 -19 11 C-19 9.35 -19 7.7 -19 6 C-18.29101562 5.89945312 -17.58203125 5.79890625 -16.8515625 5.6953125 C-12.61314625 4.66183566 -9.24858252 2.39436276 -5.5234375 0.1796875 C-3 -1 -3 -1 0 0 Z " fill="#B7CB2E" transform="translate(219,308)"/>
<path d="M0 0 C2.26655398 2.26655398 2.67309078 3.64674493 3.5625 6.6875 C3.81128906 7.51636719 4.06007813 8.34523438 4.31640625 9.19921875 C8.38738944 25.87861847 6.96078467 44.72499184 -1 60 C-1.33 60 -1.66 60 -2 60 C-2.17992922 55.411805 -1.96710129 52.1527694 0 48 C0.37125 47.071875 0.7425 46.14375 1.125 45.1875 C1.41375 44.465625 1.7025 43.74375 2 43 C2.66 43 3.32 43 4 43 C4.62397296 27.80415008 4.62397296 27.80415008 2 13 C1.01 12.67 0.02 12.34 -1 12 C-0.01 11.67 0.98 11.34 2 11 C1.67 9.9275 1.34 8.855 1 7.75 C0 4 0 4 0 0 Z " fill="#DA1314" transform="translate(361,85)"/>
<path d="M0 0 C0 0.66 0 1.32 0 2 C-1.32 2 -2.64 2 -4 2 C-4.33 2.99 -4.66 3.98 -5 5 C-5.99 5 -6.98 5 -8 5 C-8 5.66 -8 6.32 -8 7 C-9.2065625 7.6496875 -9.2065625 7.6496875 -10.4375 8.3125 C-13.24282331 9.76787059 -13.24282331 9.76787059 -13.8125 12.6875 C-13.9053125 13.8321875 -13.9053125 13.8321875 -14 15 C-16.07553648 15.5534764 -17.84365964 16 -20 16 C-20.66 16.66 -21.32 17.32 -22 18 C-22.66 18 -23.32 18 -24 18 C-26.01036785 20.13918622 -26.01036785 20.13918622 -28.0625 22.8125 C-28.77535156 23.70582031 -29.48820313 24.59914063 -30.22265625 25.51953125 C-32.14614892 27.94593373 -32.14614892 27.94593373 -33 31 C-33.66 31 -34.32 31 -35 31 C-33.00316936 25.44783675 -29.76469464 21.47735289 -26 17 C-25.49726563 16.39929688 -24.99453125 15.79859375 -24.4765625 15.1796875 C-19.14863228 9.36494132 -8.08500941 0 0 0 Z " fill="#DF0F10" transform="translate(268,47)"/>
<path d="M0 0 C0.66 0 1.32 0 2 0 C1.3914701 3.30867448 0.60046851 6.42552459 -0.49047852 9.60668945 C-0.79071426 10.48722488 -1.09095001 11.36776031 -1.40028381 12.27497864 C-1.72322922 13.2116185 -2.04617462 14.14825836 -2.37890625 15.11328125 C-2.71043198 16.08283249 -3.0419577 17.05238373 -3.38352966 18.05131531 C-4.44022144 21.13940178 -5.50129931 24.22596044 -6.5625 27.3125 C-7.28088892 29.40940589 -7.99899123 31.50641 -8.71679688 33.60351562 C-10.47454371 38.73682025 -12.23589143 43.8688784 -14 49 C-14.66 48.34 -15.32 47.68 -16 47 C-15.649375 46.071875 -15.29875 45.14375 -14.9375 44.1875 C-13.67617372 41.0197047 -13.67617372 41.0197047 -15 38 C-14.2884375 37.071875 -14.2884375 37.071875 -13.5625 36.125 C-11.6671046 33.54726225 -11.73956012 32.12527858 -12 29 C-11.01 29 -10.02 29 -9 29 C-8.86722656 28.28457031 -8.73445313 27.56914062 -8.59765625 26.83203125 C-8.01226465 24.05811678 -7.26841556 21.39700725 -6.4375 18.6875 C-6.16808594 17.80449219 -5.89867187 16.92148437 -5.62109375 16.01171875 C-5.41613281 15.34785156 -5.21117187 14.68398438 -5 14 C-5.66 13.67 -6.32 13.34 -7 13 C-6.37609375 12.61199219 -5.7521875 12.22398437 -5.109375 11.82421875 C-2.54631715 9.60764835 -2.09321455 8.05887601 -1.25 4.8125 C-1.00765625 3.91144531 -0.7653125 3.01039063 -0.515625 2.08203125 C-0.34546875 1.39496094 -0.1753125 0.70789063 0 0 Z " fill="#858689" transform="translate(449,244)"/>
<path d="M0 0 C1.16514544 3.3907421 0.84338928 5.23119977 -0.43359375 8.546875 C-0.9121582 9.81337891 -0.9121582 9.81337891 -1.40039062 11.10546875 C-1.91375977 12.41451172 -1.91375977 12.41451172 -2.4375 13.75 C-2.94506836 15.08224609 -2.94506836 15.08224609 -3.46289062 16.44140625 C-4.29890894 18.63153873 -5.14485791 20.81727914 -6 23 C-6.66 22.67 -7.32 22.34 -8 22 C-7.835 21.401875 -7.67 20.80375 -7.5 20.1875 C-6.8885876 17.88655664 -6.8885876 17.88655664 -7 15 C-7 12 -7 12 -5.5 10.3125 C-5.005 9.879375 -4.51 9.44625 -4 9 C-4.33 8.34 -4.66 7.68 -5 7 C-6.98 7.33 -8.96 7.66 -11 8 C-11 8.66 -11 9.32 -11 10 C-14.6125362 11.84827434 -18.2089881 13.55049545 -22 15 C-20.75072272 11.25216815 -19.69132561 10.96582803 -16.30859375 9.08203125 C-15.36435547 8.55029297 -14.42011719 8.01855469 -13.44726562 7.47070312 C-12.45404297 6.92349609 -11.46082031 6.37628906 -10.4375 5.8125 C-8.94186523 4.97428711 -8.94186523 4.97428711 -7.41601562 4.11914062 C-4.94848539 2.73779595 -2.47648166 1.36521151 0 0 Z " fill="#7F7F81" transform="translate(492,123)"/>
<path d="M0 0 C0 0.99 0 1.98 0 3 C-10.25390625 8.859375 -10.25390625 8.859375 -12.11767578 9.91992188 C-13.40244273 10.65712148 -14.68188845 11.40365345 -15.95654297 12.15820312 C-20.78935185 15 -20.78935185 15 -23 15 C-23.23460937 15.62390625 -23.46921875 16.2478125 -23.7109375 16.890625 C-25.36823075 19.60255941 -26.6141599 19.88975997 -29.625 20.75 C-30.85089844 21.11351562 -30.85089844 21.11351562 -32.1015625 21.484375 C-32.72804688 21.65453125 -33.35453125 21.8246875 -34 22 C-34 22.66 -34 23.32 -34 24 C-35.65 24 -37.3 24 -39 24 C-36.47911891 21.16822989 -33.65360217 19.5040955 -30.37109375 17.63671875 C-29.25283203 16.99669922 -28.13457031 16.35667969 -26.98242188 15.69726562 C-25.80090531 15.02712497 -24.61926403 14.35720416 -23.4375 13.6875 C-21.14405897 12.37973414 -18.85108364 11.07115122 -16.55859375 9.76171875 C-15.45499512 9.13185059 -14.35139648 8.50198242 -13.21435547 7.85302734 C-8.77425037 5.29337386 -4.37967467 2.66147063 0 0 Z " fill="#868688" transform="translate(353,204)"/>
<path d="M0 0 C0.33 0 0.66 0 1 0 C1 2.31 1 4.62 1 7 C0.34 7 -0.32 7 -1 7 C-0.67 8.32 -0.34 9.64 0 11 C0.515625 10.525625 1.03125 10.05125 1.5625 9.5625 C4.66782675 7.57190593 7.36632504 7.34939182 11 7 C8.03352255 10.19249477 4.95036364 12.4592987 1.25 14.75 C0.26515625 15.36359375 -0.7196875 15.9771875 -1.734375 16.609375 C-2.48203125 17.06828125 -3.2296875 17.5271875 -4 18 C-5.35814777 13.9255567 -3.94745762 11.18531884 -2.5625 7.3125 C-2.31951172 6.61060547 -2.07652344 5.90871094 -1.82617188 5.18554688 C-1.2255056 3.45421468 -0.61380281 1.72671863 0 0 Z " fill="#B4C439" transform="translate(10,433)"/>
<path d="M0 0 C0.99 0.33 1.98 0.66 3 1 C2.01 1.33 1.02 1.66 0 2 C-0.33 2.66 -0.66 3.32 -1 4 C-2.99019747 5.01936943 -4.9927542 6.01462479 -7 7 C-15.13504431 11.34600717 -15.13504431 11.34600717 -21 18 C-21.99 18 -22.98 18 -24 18 C-24.66 17.01 -25.32 16.02 -26 15 C-25.31897217 14.61666504 -24.63794434 14.23333008 -23.9362793 13.83837891 C-20.85267067 12.10179406 -17.77007527 10.36341842 -14.6875 8.625 C-13.61564453 8.02171875 -12.54378906 7.4184375 -11.43945312 6.796875 C-10.41142578 6.21679688 -9.38339844 5.63671875 -8.32421875 5.0390625 C-7.37635498 4.50490723 -6.42849121 3.97075195 -5.4519043 3.42041016 C-3.59555928 2.34501283 -1.78503321 1.19002214 0 0 Z " fill="#858588" transform="translate(312,228)"/>
<path d="M0 0 C2.42999536 2.27364177 3.42805835 3.68273845 4 7 C2.68 6.67 1.36 6.34 0 6 C0.226875 6.598125 0.45375 7.19625 0.6875 7.8125 C1 10 1 10 -0.3125 11.75 C-2 13 -2 13 -4 13 C-3.95875 13.9075 -3.9175 14.815 -3.875 15.75 C-3.99531556 18.8782046 -4.3914708 20.38614006 -6 23 C-6.66 23 -7.32 23 -8 23 C-6.05797655 14.97928527 -3.33160505 7.54549287 0 0 Z " fill="#B7C935" transform="translate(123,117)"/>
<path d="M0 0 C0 5.36833804 -4.50669617 9.17489491 -8 13 C-9.95910844 14.61892852 -11.76593993 15.77126696 -14 17 C-14.33 15.68 -14.66 14.36 -15 13 C-14.34 12.67 -13.68 12.34 -13 12 C-12.34 12.33 -11.68 12.66 -11 13 C-11 12.01 -11 11.02 -11 10 C-10.34 10 -9.68 10 -9 10 C-9.33 7.69 -9.66 5.38 -10 3 C-9.67 3.66 -9.34 4.32 -9 5 C-7.35 4.67 -5.7 4.34 -4 4 C-3.67 3.01 -3.34 2.02 -3 1 C-2.01 0.67 -1.02 0.34 0 0 Z " fill="#E80909" transform="translate(354,152)"/>
<path d="M0 0 C0 0.99 0 1.98 0 3 C-2.31 4.32 -4.62 5.64 -7 7 C-7 6.01 -7 5.02 -7 4 C-4.69 2.68 -2.38 1.36 0 0 Z M-10 6 C-9.34 6.33 -8.68 6.66 -8 7 C-8.99 8.485 -8.99 8.485 -10 10 C-10.66 10 -11.32 10 -12 10 C-12 10.66 -12 11.32 -12 12 C-13.78810766 12.69670416 -15.58062052 13.38211189 -17.375 14.0625 C-18.37273437 14.44535156 -19.37046875 14.82820312 -20.3984375 15.22265625 C-23 16 -23 16 -25 15 C-22.54732365 13.46931512 -20.08866106 11.95031377 -17.625 10.4375 C-16.92632812 9.99986328 -16.22765625 9.56222656 -15.5078125 9.11132812 C-13.70814097 8.01249022 -11.85677657 6.99932133 -10 6 Z " fill="#878789" transform="translate(401,176)"/>
<path d="M0 0 C0.33 0 0.66 0 1 0 C0.57838599 3.51345008 0.09994721 6.71191688 -1.0625 10.0625 C-2.064185 13.201113 -2.15585675 15.72700832 -2 19 C-2.99 19.33 -3.98 19.66 -5 20 C-5.695085 22.04439102 -5.695085 22.04439102 -6 24.4375 C-6.375 26.87109375 -6.375 26.87109375 -7 29 C-7.99 29.66 -8.98 30.32 -10 31 C-7.45115129 20.41620917 -3.6653736 10.23507071 0 0 Z " fill="#B7C940" transform="translate(70,264)"/>
<path d="M0 0 C-7.92 5.28 -15.84 10.56 -24 16 C-24.33 15.01 -24.66 14.02 -25 13 C-23.75 11.5 -23.75 11.5 -22 10 C-20.68 10 -19.36 10 -18 10 C-18 9.34 -18 8.68 -18 8 C-16.906875 7.401875 -15.81375 6.80375 -14.6875 6.1875 C-12.62762932 5.01927675 -11.05510439 4.05510439 -9.375 2.375 C-6.4437451 -0.5562549 -3.8689747 -1.28965823 0 0 Z " fill="#B4C53C" transform="translate(90,395)"/>
<path d="M0 0 C1.32 0.33 2.64 0.66 4 1 C2.47330418 5.2365809 -0.30875664 6.85424109 -4 9.25 C-5.0725 9.95640625 -6.145 10.6628125 -7.25 11.390625 C-10 13 -10 13 -12 13 C-11.23046687 9.15233433 -9.7602947 7.7602947 -7 5 C-6.34 5.33 -5.68 5.66 -5 6 C-4.67 5.34 -4.34 4.68 -4 4 C-3.01 4 -2.02 4 -1 4 C-0.67 2.68 -0.34 1.36 0 0 Z " fill="#B5CB2F" transform="translate(161,341)"/>
<path d="M0 0 C0.33 0 0.66 0 1 0 C1.22577402 5.4185766 0.46670113 9.77487721 -1 15 C-1.66 15 -2.32 15 -3 15 C-3 22.26 -3 29.52 -3 37 C-3.33 37 -3.66 37 -4 37 C-4.4356984 24.03294538 -4.76327569 12.26968784 0 0 Z " fill="#D91615" transform="translate(228,86)"/>
<path d="M0 0 C0.99 0.33 1.98 0.66 3 1 C2.42934122 7.41991126 0.32655091 13.01589463 -2 19 C-2.66 18.67 -3.32 18.34 -4 18 C-3.835 17.401875 -3.67 16.80375 -3.5 16.1875 C-2.8885876 13.88655664 -2.8885876 13.88655664 -3 11 C-3 8 -3 8 -1.5 6.3125 C-1.005 5.879375 -0.51 5.44625 0 5 C-0.33 4.01 -0.66 3.02 -1 2 C-0.67 1.34 -0.34 0.68 0 0 Z " fill="#88898A" transform="translate(488,127)"/>
<path d="M0 0 C4.61260847 1.33758751 8.20593497 3.20043794 12.1875 5.875 C13.21230469 6.55304687 14.23710937 7.23109375 15.29296875 7.9296875 C17.7461695 9.80587278 19.32556953 11.43369076 21 14 C19.68 13.67 18.36 13.34 17 13 C17 13.66 17 14.32 17 15 C16.01 14.67 15.02 14.34 14 14 C14 12.68 14 11.36 14 10 C12.20557339 8.22877394 12.20557339 8.22877394 9.8125 6.8125 C9.03519531 6.30332031 8.25789063 5.79414062 7.45703125 5.26953125 C4.93969403 3.96884032 2.79051112 3.41138974 0 3 C0 2.01 0 1.02 0 0 Z " fill="#D01719" transform="translate(325,48)"/>
<path d="M0 0 C0.66 0 1.32 0 2 0 C3.25664978 2.90600261 4 4.79604584 4 8 C5.32 7.67 6.64 7.34 8 7 C8.36256858 8.4562672 8.71479793 9.91511185 9.0625 11.375 C9.25972656 12.18710938 9.45695313 12.99921875 9.66015625 13.8359375 C10 16 10 16 9 18 C7.87256334 16.25156882 6.7481458 14.5011906 5.625 12.75 C4.99851563 11.77546875 4.37203125 10.8009375 3.7265625 9.796875 C0 3.760181 0 3.760181 0 0 Z " fill="#DA0D0D" transform="translate(229,139)"/>
<path d="M0 0 C0.99 0.33 1.98 0.66 3 1 C2.54857225 2.77260631 2.08859477 4.5430368 1.625 6.3125 C1.36976563 7.29863281 1.11453125 8.28476562 0.8515625 9.30078125 C0 12 0 12 -2 15 C-3.125 13.375 -3.125 13.375 -4 11 C-3.125 8 -3.125 8 -2 5 C-2 3.68 -2 2.36 -2 1 C-1.34 0.67 -0.68 0.34 0 0 Z " fill="#88898B" transform="translate(404,370)"/>
<path d="M0 0 C0.66 0.33 1.32 0.66 2 1 C-1.26107889 3.81638631 -4.09371915 6.16893085 -8 8 C-10.01182457 9.31542376 -12.01399663 10.6459068 -14 12 C-14.33 11.01 -14.66 10.02 -15 9 C-12.87562549 7.68647829 -10.75053408 6.37414287 -8.625 5.0625 C-8.02171875 4.68931641 -7.4184375 4.31613281 -6.796875 3.93164062 C-2.2265625 1.11328125 -2.2265625 1.11328125 0 0 Z " fill="#88888B" transform="translate(374,192)"/>
<path d="M0 0 C-0.66 1.65 -1.32 3.3 -2 5 C-2.99 4.67 -3.98 4.34 -5 4 C-5.33 4.66 -5.66 5.32 -6 6 C-7.97888961 6.72693904 -9.97954558 7.39816251 -12 8 C-12 8.66 -12 9.32 -12 10 C-14.31 10.33 -16.62 10.66 -19 11 C-15.44608026 8.03073619 -11.81482005 5.57681464 -7.8125 3.25 C-6.76707031 2.63640625 -5.72164063 2.0228125 -4.64453125 1.390625 C-2 0 -2 0 0 0 Z " fill="#858688" transform="translate(468,138)"/>
<path d="M0 0 C0.99 0 1.98 0 3 0 C1.22089072 6.75052102 -0.70438191 13.40620337 -3 20 C-3.66 19.67 -4.32 19.34 -5 19 C-4.67 17.02 -4.34 15.04 -4 13 C-3.34 13 -2.68 13 -2 13 C-2.061875 11.7315625 -2.061875 11.7315625 -2.125 10.4375 C-1.98464972 6.57786731 -1.17219836 3.66311987 0 0 Z " fill="#858688" transform="translate(394,400)"/>
<path d="M0 0 C1.65 0.33 3.3 0.66 5 1 C5 1.66 5 2.32 5 3 C6.32 3.33 7.64 3.66 9 4 C7.75579353 4.5345256 6.50429064 5.05208611 5.25 5.5625 C4.55390625 5.85253906 3.8578125 6.14257812 3.140625 6.44140625 C0.69987216 7.07831803 -0.6403655 6.80248831 -3 6 C-2.34 6 -1.68 6 -1 6 C-0.67 4.02 -0.34 2.04 0 0 Z " fill="#DC0D0A" transform="translate(313,176)"/>
<path d="M0 0 C0.33 0 0.66 0 1 0 C1.16813065 4.9598541 1.20408365 8.46938361 -1 13 C-1.309375 13.9075 -1.61875 14.815 -1.9375 15.75 C-2.288125 16.4925 -2.63875 17.235 -3 18 C-3.99 18.33 -4.98 18.66 -6 19 C-4.12275039 12.62267685 -2.14328358 6.29304541 0 0 Z " fill="#B7C644" transform="translate(114,140)"/>
<path d="M0 0 C0.66 0 1.32 0 2 0 C2.33 0.99 2.66 1.98 3 3 C6.50294871 4.71567661 6.50294871 4.71567661 10 6 C10 6.66 10 7.32 10 8 C11.32 8 12.64 8 14 8 C14 8.66 14 9.32 14 10 C9.76677156 9.37954537 6.47709705 7.89476441 2.6875 5.9375 C1.61886719 5.38964844 0.55023438 4.84179688 -0.55078125 4.27734375 C-1.35902344 3.85582031 -2.16726563 3.43429688 -3 3 C-2.01 2.67 -1.02 2.34 0 2 C0 1.34 0 0.68 0 0 Z " fill="#DA0F0F" transform="translate(259,171)"/>
<path d="M0 0 C8 9.42857143 8 9.42857143 8 14 C7.34 14 6.68 14 6 14 C6 13.34 6 12.68 6 12 C3.525 11.01 3.525 11.01 1 10 C1.04125 9.05125 1.0825 8.1025 1.125 7.125 C1.34973818 3.89755144 1.34973818 3.89755144 -1 2 C-0.67 1.34 -0.34 0.68 0 0 Z " fill="#B7CA34" transform="translate(193,235)"/>
<path d="M0 0 C-0.66666667 3.33333333 -1.33333333 6.66666667 -2 10 C-4.32472205 7.14693203 -5.7508258 4.45925163 -7 1 C-4 0 -4 0 0 0 Z " fill="#8B8C90" transform="translate(366,417)"/>
<path d="M0 0 C2.30874711 2.16614803 4.05290181 4.39206608 5.75 7.0625 C6.19859375 7.75472656 6.6471875 8.44695312 7.109375 9.16015625 C7.40328125 9.76730469 7.6971875 10.37445313 8 11 C7.67 11.66 7.34 12.32 7 13 C6.34 12.67 5.68 12.34 5 12 C5 11.34 5 10.68 5 10 C4.01 9.67 3.02 9.34 2 9 C2 8.01 2 7.02 2 6 C1.34 6 0.68 6 0 6 C-1 3 -1 3 0 0 Z " fill="#B7CA33" transform="translate(179,212)"/>
<path d="M0 0 C0.33 0.66 0.66 1.32 1 2 C0.02417969 2.55429688 -0.95164062 3.10859375 -1.95703125 3.6796875 C-3.24222019 4.41140091 -4.52737464 5.14317492 -5.8125 5.875 C-6.45509766 6.23980469 -7.09769531 6.60460937 -7.75976562 6.98046875 C-10.56768798 8.58083901 -13.30964298 10.20642866 -16 12 C-16.99 11.67 -17.98 11.34 -19 11 C-12.73 7.37 -6.46 3.74 0 0 Z " fill="#828284" transform="translate(422,164)"/>
<path d="M0 0 C1.35814777 4.0744433 -0.05254238 6.81468116 -1.4375 10.6875 C-1.68048828 11.38939453 -1.92347656 12.09128906 -2.17382812 12.81445312 C-2.7744944 14.54578532 -3.38619719 16.27328137 -4 18 C-4.66 17.67 -5.32 17.34 -6 17 C-5.38490238 14.35149716 -4.75850592 11.70660095 -4.125 9.0625 C-3.95097656 8.30775391 -3.77695312 7.55300781 -3.59765625 6.77539062 C-3.12755935 4.83406455 -2.5695703 2.91450456 -2 1 C-1.34 0.67 -0.68 0.34 0 0 Z " fill="#848587" transform="translate(421,327)"/>
<path d="M0 0 C2.97 0.495 2.97 0.495 6 1 C2.97731777 4.25519625 -0.14096436 6.78310719 -4 9 C-4.99 8.67 -5.98 8.34 -7 8 C-6.01 7.67 -5.02 7.34 -4 7 C-3.30062468 5.68352881 -2.63270867 4.34977849 -2 3 C-1.34 2.67 -0.68 2.34 0 2 C0 1.34 0 0.68 0 0 Z " fill="#B7C835" transform="translate(58,410)"/>
<path d="M0 0 C1.98 0.66 3.96 1.32 6 2 C6.1953125 4.05078125 6.390625 6.1015625 6.5859375 8.15234375 C6.72257812 8.76207031 6.85921875 9.37179687 7 10 C7.66 10.33 8.32 10.66 9 11 C8.01 11.33 7.02 11.66 6 12 C4.99466333 10.37829621 3.99588093 8.75252763 3 7.125 C2.443125 6.22007812 1.88625 5.31515625 1.3125 4.3828125 C0 2 0 2 0 0 Z " fill="#86888A" transform="translate(289,297)"/>
<path d="M0 0 C3.32851213 2.98418329 5.3205729 5.84562769 7 10 C6.67 10.99 6.34 11.98 6 13 C5.01 13.33 4.02 13.66 3 14 C3.226875 13.4225 3.45375 12.845 3.6875 12.25 C4.27720088 9.92146668 4.27720088 9.92146668 2.625 8.125 C1.820625 7.073125 1.820625 7.073125 1 6 C0.3125 2.75 0.3125 2.75 0 0 Z " fill="#B3C73B" transform="translate(224,288)"/>
<path d="M0 0 C3.22269618 3.79817765 5.74520378 7.57391854 8 12 C7.67 12.66 7.34 13.32 7 14 C6.34 13.67 5.68 13.34 5 13 C4.896875 12.4225 4.79375 11.845 4.6875 11.25 C4.1073968 8.69262854 4.1073968 8.69262854 1.375 6.5 C0.59125 5.675 -0.1925 4.85 -1 4 C-0.8125 1.6875 -0.8125 1.6875 0 0 Z " fill="#B6C935" transform="translate(216,274)"/>
<path d="M0 0 C1.90528567 6.72837018 -1.81203933 13.07950162 -5 19 C-6 17 -6 17 -5.56274414 15.21240234 C-5.30614014 14.51066895 -5.04953613 13.80893555 -4.78515625 13.0859375 C-4.37426758 11.94511719 -4.37426758 11.94511719 -3.95507812 10.78125 C-3.66052734 9.9871875 -3.36597656 9.193125 -3.0625 8.375 C-2.77181641 7.57320313 -2.48113281 6.77140625 -2.18164062 5.9453125 C-1.46117475 3.96107862 -0.73144862 1.98021163 0 0 Z " fill="#B8C947" transform="translate(49,324)"/>
<path d="M0 0 C1 2 1 2 0.00390625 5.4765625 C-0.46900047 6.86197936 -0.94981644 8.24471547 -1.4375 9.625 C-1.68048828 10.33140625 -1.92347656 11.0378125 -2.17382812 11.765625 C-2.77587205 13.51273287 -3.38708017 15.25667786 -4 17 C-4.66 16.67 -5.32 16.34 -6 16 C-5.33333333 12.66666667 -4.66666667 9.33333333 -4 6 C-3.34 6 -2.68 6 -2 6 C-1.855625 5.195625 -1.71125 4.39125 -1.5625 3.5625 C-1 1 -1 1 0 0 Z " fill="#848588" transform="translate(430,302)"/>
<path d="M0 0 C3.10753611 1.03584537 4.02036826 1.50394259 6 4 C8.22222222 9.33333333 8.22222222 9.33333333 7 13 C5.83072457 11.02237345 4.66464427 9.04285742 3.5 7.0625 C2.8503125 5.96035156 2.200625 4.85820312 1.53125 3.72265625 C0 1 0 1 0 0 Z " fill="#88898A" transform="translate(280,282)"/>
<path d="M0 0 C2.46301423 2.46301423 2.76766521 4.27360036 3.625 7.625 C3.88539063 8.62789062 4.14578125 9.63078125 4.4140625 10.6640625 C4.60742188 11.43492188 4.80078125 12.20578125 5 13 C4.01 13.99 3.02 14.98 2 16 C2 15.01 2 14.02 2 13 C1.01 12.67 0.02 12.34 -1 12 C-0.01 11.67 0.98 11.34 2 11 C1.67 9.9275 1.34 8.855 1 7.75 C0 4 0 4 0 0 Z " fill="#DD0D0B" transform="translate(361,85)"/>
<path d="M0 0 C0.99 0 1.98 0 3 0 C3.33 1.32 3.66 2.64 4 4 C2.87926138 4.83905565 1.75325453 5.67107831 0.625 6.5 C-0.00148438 6.9640625 -0.62796875 7.428125 -1.2734375 7.90625 C-3 9 -3 9 -5 9 C-4.67 7.68 -4.34 6.36 -4 5 C-2.68 5 -1.36 5 0 5 C-0.2784375 4.0409375 -0.2784375 4.0409375 -0.5625 3.0625 C-0.706875 2.381875 -0.85125 1.70125 -1 1 C-0.67 0.67 -0.34 0.34 0 0 Z " fill="#B3C934" transform="translate(96,384)"/>
<path d="M0 0 C2.65614176 0.36969853 3.74758254 0.70475592 5.51953125 2.77734375 C5.94621094 3.49019531 6.37289062 4.20304688 6.8125 4.9375 C7.25207031 5.64777344 7.69164062 6.35804688 8.14453125 7.08984375 C8.42683594 7.72019531 8.70914063 8.35054687 9 9 C8.67 9.66 8.34 10.32 8 11 C6.29115995 9.37660195 4.62553283 7.70680947 3 6 C3 5.34 3 4.68 3 4 C2.34 4 1.68 4 1 4 C0.67 2.68 0.34 1.36 0 0 Z " fill="#B6CB33" transform="translate(168,197)"/>
<path d="M0 0 C1.25955231 3.77865693 0.48087189 5.03411786 -0.9375 8.6875 C-1.31777344 9.68136719 -1.69804687 10.67523438 -2.08984375 11.69921875 C-2.39019531 12.45847656 -2.69054687 13.21773437 -3 14 C-3.66 14 -4.32 14 -5 14 C-5 12.35 -5 10.7 -5 9 C-4.34 9 -3.68 9 -3 9 C-2.87625 8.071875 -2.7525 7.14375 -2.625 6.1875 C-2 3 -2 3 0 0 Z " fill="#858689" transform="translate(461,212)"/>
<path d="M0 0 C0.33 0 0.66 0 1 0 C0.27605238 5.91223889 -1.11949792 11.35849376 -3 17 C-3.66 17 -4.32 17 -5 17 C-1.92482916 5.47835991 -1.92482916 5.47835991 0 0 Z " fill="#B6C845" transform="translate(120,123)"/>
<path d="M0 0 C0.556875 0.226875 1.11375 0.45375 1.6875 0.6875 C0.9759375 1.368125 0.9759375 1.368125 0.25 2.0625 C-1.40277808 3.62008204 -1.40277808 3.62008204 -2.3125 5.6875 C-3.3025 5.6875 -4.2925 5.6875 -5.3125 5.6875 C-5.9725 4.6975 -6.6325 3.7075 -7.3125 2.6875 C-2.88173077 -0.38942308 -2.88173077 -0.38942308 0 0 Z " fill="#8A8B8F" transform="translate(293.3125,240.3125)"/>
<path d="M0 0 C0 0.66 0 1.32 0 2 C-1.32 2 -2.64 2 -4 2 C-4.33 2.99 -4.66 3.98 -5 5 C-6.84765625 5.73046875 -6.84765625 5.73046875 -9.0625 6.1875 C-9.79597656 6.34605469 -10.52945312 6.50460938 -11.28515625 6.66796875 C-12.13400391 6.83232422 -12.13400391 6.83232422 -13 7 C-9.7518905 3.1786947 -5.05744645 0 0 0 Z " fill="#D41014" transform="translate(268,47)"/>
<path d="M0 0 C0.66 0 1.32 0 2 0 C2 0.66 2 1.32 2 2 C2.66 2 3.32 2 4 2 C5.65 5.63 7.3 9.26 9 13 C6 12 6 12 4.39453125 9.27734375 C3.87246094 8.17519531 3.35039062 7.07304687 2.8125 5.9375 C2.28269531 4.83277344 1.75289063 3.72804688 1.20703125 2.58984375 C0.80871094 1.73519531 0.41039062 0.88054687 0 0 Z " fill="#7F8082" transform="translate(368,434)"/>
<path d="M0 0 C0.33 0 0.66 0 1 0 C1.125 5.75 1.125 5.75 0 8 C0.66 8 1.32 8 2 8 C1.67 9.32 1.34 10.64 1 12 C1 11.34 1 10.68 1 10 C-0.32 10.33 -1.64 10.66 -3 11 C-2.01 7.37 -1.02 3.74 0 0 Z " fill="#B8CB3E" transform="translate(18,411)"/>
<path d="M0 0 C0.556875 0.185625 1.11375 0.37125 1.6875 0.5625 C4.399133 1.07551165 6.34371039 0.6640724 9 0 C6.51047079 2.66735273 4.36591866 4.55746343 1 6 C0.67 4.02 0.34 2.04 0 0 Z " fill="#B6C93A" transform="translate(140,354)"/>
<path d="M0 0 C1.32 0.66 2.64 1.32 4 2 C-0.455 4.97 -0.455 4.97 -5 8 C-5 5 -5 5 -4 3 C-2.68 3 -1.36 3 0 3 C0 2.01 0 1.02 0 0 Z " fill="#B3C633" transform="translate(48,418)"/>
<path d="M0 0 C0.66 0 1.32 0 2 0 C0.515 5.445 0.515 5.445 -1 11 C-1.66 10.67 -2.32 10.34 -3 10 C-3 8.02 -3 6.04 -3 4 C-2.34 3.67 -1.68 3.34 -1 3 C-0.67 2.01 -0.34 1.02 0 0 Z " fill="#858688" transform="translate(411,354)"/>
<path d="M0 0 C3.29963329 1.09987776 3.61064772 1.45586748 5.25 4.3125 C5.60578125 4.90675781 5.9615625 5.50101562 6.328125 6.11328125 C7.15994803 8.4491564 6.7945524 9.69274206 6 12 C4.99466333 10.37829621 3.99588093 8.75252763 3 7.125 C2.443125 6.22007812 1.88625 5.31515625 1.3125 4.3828125 C0 2 0 2 0 0 Z " fill="#858688" transform="translate(312,337)"/>
<path d="M0 0 C1.98 0 3.96 0 6 0 C4.33784732 1.33895632 2.67036393 2.67130142 1 4 C-0.0828125 4.86625 -0.0828125 4.86625 -1.1875 5.75 C-3 7 -3 7 -5 7 C-5 6.01 -5 5.02 -5 4 C-3.35 3.67 -1.7 3.34 0 3 C0 2.01 0 1.02 0 0 Z " fill="#B3C732" transform="translate(182,328)"/>
<path d="M0 0 C0.99 0 1.98 0 3 0 C2.55005243 1.79379098 2.08975857 3.58498928 1.625 5.375 C1.36976563 6.37273437 1.11453125 7.37046875 0.8515625 8.3984375 C0 11 0 11 -2 13 C-2.26280222 8.66376337 -1.27044989 5.12896214 0 1 C0 0.67 0 0.34 0 0 Z " fill="#848586" transform="translate(467,190)"/>
<path d="M0 0 C3.12613393 2.96160056 5.04783565 5.09567131 7 9 C4.36 7.35 1.72 5.7 -1 4 C-0.67 2.68 -0.34 1.36 0 0 Z " fill="#D21115" transform="translate(346,62)"/>
<path d="M0 0 C3.67420866 0.30618405 4.78135513 0.75771784 7.3125 3.5625 C8.1478125 4.7690625 8.1478125 4.7690625 9 6 C7.68 5.67 6.36 5.34 5 5 C5 5.66 5 6.32 5 7 C4.01 6.67 3.02 6.34 2 6 C2 4.68 2 3.36 2 2 C1.34 1.34 0.68 0.68 0 0 Z " fill="#E01010" transform="translate(337,56)"/>
<path d="M0 0 C0.99 0.66 1.98 1.32 3 2 C0.6875 4.0625 0.6875 4.0625 -2 6 C-2.99 5.67 -3.98 5.34 -5 5 C-4.67 4.01 -4.34 3.02 -4 2 C-2.68 2 -1.36 2 0 2 C0 1.34 0 0.68 0 0 Z " fill="#B6C737" transform="translate(116,373)"/>
<path d="M0 0 C0.33 0 0.66 0 1 0 C1.33 2.64 1.66 5.28 2 8 C-0.475 9.485 -0.475 9.485 -3 11 C-2.01 7.37 -1.02 3.74 0 0 Z " fill="#B8CA42" transform="translate(35,363)"/>
<path d="M0 0 C0.99 0.495 0.99 0.495 2 1 C2 1.66 2 2.32 2 3 C2.66 3 3.32 3 4 3 C4 3.99 4 4.98 4 6 C4.99 6.33 5.98 6.66 7 7 C7 8.65 7 10.3 7 12 C3.71534104 9.20803989 1.98678042 5.76803183 0 2 C0 1.34 0 0.68 0 0 Z " fill="#848589" transform="translate(296,309)"/>
<path d="M0 0 C0 4.25866406 -1.21704663 6.17099055 -4.125 9.25 C-4.74375 9.8275 -5.3625 10.405 -6 11 C-6.66 10.67 -7.32 10.34 -8 10 C-6.85500893 8.52018126 -5.708983 7.04116318 -4.5625 5.5625 C-3.60537109 4.32693359 -3.60537109 4.32693359 -2.62890625 3.06640625 C-1 1 -1 1 0 0 Z " fill="#F40407" transform="translate(244,64)"/>
<path d="M0 0 C0.66 0 1.32 0 2 0 C1.67 2.64 1.34 5.28 1 8 C0.01 8.33 -0.98 8.66 -2 9 C-2.20140476 5.37471432 -1.85776765 3.13498292 0 0 Z " fill="#E40B0E" transform="translate(363,128)"/>
<path d="M0 0 C2.31 0 4.62 0 7 0 C4.31158141 2.25245881 2.35358125 3.88213958 -1 5 C-0.67 3.35 -0.34 1.7 0 0 Z " fill="#B6C932" transform="translate(105,379)"/>
<path d="M0 0 C-1.12073862 0.83905565 -2.24674547 1.67107831 -3.375 2.5 C-4.00148437 2.9640625 -4.62796875 3.428125 -5.2734375 3.90625 C-7 5 -7 5 -9 5 C-9 4.01 -9 3.02 -9 2 C-3.375 -1.125 -3.375 -1.125 0 0 Z " fill="#B3C53C" transform="translate(219,308)"/>
<path d="M0 0 C0.66666667 2.66666667 1.33333333 5.33333333 2 8 C0.35 8.66 -1.3 9.32 -3 10 C-2.01 6.7 -1.02 3.4 0 0 Z " fill="#B9C83F" transform="translate(82,231)"/>
<path d="M0 0 C2.72426311 2.35277269 3.8141763 4.62496331 5 8 C3.68 7.67 2.36 7.34 1 7 C0 2.25 0 2.25 0 0 Z " fill="#B4C63F" transform="translate(156,173)"/>
<path d="M0 0 C0 0.66 0 1.32 0 2 C-2.31 2.66 -4.62 3.32 -7 4 C-7.33 3.01 -7.66 2.02 -8 1 C-3.375 -1.125 -3.375 -1.125 0 0 Z " fill="#B9D025" transform="translate(91,392)"/>
<path d="M0 0 C0.66 0 1.32 0 2 0 C3.32 2.31 4.64 4.62 6 7 C5.34 7.66 4.68 8.32 4 9 C0 2.25 0 2.25 0 0 Z " fill="#84858A" transform="translate(328,364)"/>
<path d="M0 0 C4.42857143 5.14285714 4.42857143 5.14285714 5 9 C3.68 8.67 2.36 8.34 1 8 C1.33 6.68 1.66 5.36 2 4 C1.34 4 0.68 4 0 4 C0 2.68 0 1.36 0 0 Z " fill="#B3C639" transform="translate(161,181)"/>
<path d="M0 0 C0 3 0 3 -2.5 5.6875 C-3.325 6.450625 -4.15 7.21375 -5 8 C-5.33 7.01 -5.66 6.02 -6 5 C-5.34 4.34 -4.68 3.68 -4 3 C-3.67 2.34 -3.34 1.68 -3 1 C-2.01 0.67 -1.02 0.34 0 0 Z " fill="#D41214" transform="translate(354,152)"/>
<path d="M0 0 C1.2077558 3.62326739 0.54311128 4.64146369 -1 8 C-1.66 8 -2.32 8 -3 8 C-2.74438677 5.6568787 -2.40729228 3.32156597 -2 1 C-1.34 0.67 -0.68 0.34 0 0 Z " fill="#858689" transform="translate(415,345)"/>
<path d="M0 0 C1.65 0 3.3 0 5 0 C2.31158141 2.25245881 0.35358125 3.88213958 -3 5 C-3 4.34 -3 3.68 -3 3 C-2.34 3 -1.68 3 -1 3 C-0.67 2.01 -0.34 1.02 0 0 Z " fill="#B3C637" transform="translate(37,426)"/>
<path d="M0 0 C3.08089673 2.77280706 4.68775452 5.06326356 6 9 C4.125 8.4375 4.125 8.4375 2 7 C0.75 3.375 0.75 3.375 0 0 Z " fill="#CD1315" transform="translate(353,71)"/>
</svg>
